<svg xmlns="http://www.w3.org/2000/svg" width="1024" height="1024" viewBox="73 80 878 878">
  <g fill="white">
    <!-- LEFT: nub (breiter nach außen: x=112) + weight -->
    <path d="M 130 623 A 18 18 0 0 0 112 641 L 112 660 A 18 18 0 0 0 130 678 L 162 678 L 162 623 Z"/>
    <rect x="142" y="572" width="50" height="162" rx="18"/>

    <!-- RIGHT: nub (breiter nach außen: bis x=912) + weight -->
    <path d="M 894 623 A 18 18 0 0 1 912 641 L 912 660 A 18 18 0 0 1 894 678 L 862 678 L 862 623 Z"/>
    <rect x="832" y="572" width="50" height="162" rx="18"/>

    <!-- CALENDAR: oberer Teil -->
    <path d="
      M 297 240
      C 240 240, 207 273, 207 330
      L 207 495
      A 18 18 0 0 0 225 513
      L 239 513
      A 18 18 0 0 0 257 495
      L 257 348
      L 767 348
      L 767 495
      A 18 18 0 0 0 785 513
      L 799 513
      A 18 18 0 0 0 817 495
      L 817 330
      C 817 273, 784 240, 727 240
      Z
    "/>

    <!-- CALENDAR: unterer Teil -->
    <path fill-rule="evenodd" d="
      M 817 561
      A 18 18 0 0 0 799 543
      L 785 543
      A 18 18 0 0 0 767 561
      L 767 605
      A 18 18 0 0 1 749 623
      L 275 623
      A 18 18 0 0 1 257 605
      L 257 561
      A 18 18 0 0 0 239 543
      L 225 543
      A 18 18 0 0 0 207 561
      L 207 732
      C 207 799, 250 852, 317 852
      L 707 852
      C 774 852, 817 799, 817 732
      Z

      M 767 696
      A 18 18 0 0 0 749 678
      L 275 678
      A 18 18 0 0 0 257 696
      L 257 710
      C 257 755, 310 790, 392 790
      L 632 790
      C 714 790, 767 755, 767 710
      Z
    "/>

    <!-- Tabs -->
    <path d="M 334 252 L 334 214 A 18 18 0 0 1 352 196 L 396 196 A 18 18 0 0 1 414 214 L 414 252 Z"/>
    <path d="M 610 252 L 610 214 A 18 18 0 0 1 628 196 L 672 196 A 18 18 0 0 1 690 214 L 690 252 Z"/>

    <!-- Bars -->
    <path d="M 345 597 L 345 487 A 18 18 0 0 1 363 469 L 399 469 A 18 18 0 0 1 417 487 L 417 597 Z"/>
    <path d="M 478 597 L 478 442 A 18 18 0 0 1 496 424 L 532 424 A 18 18 0 0 1 550 442 L 550 597 Z"/>
    <path d="M 607 597 L 607 398 A 18 18 0 0 1 625 380 L 661 380 A 18 18 0 0 1 679 398 L 679 597 Z"/>
  </g>
</svg>
