<svg width="33" height="33" viewBox="0 0 33 33" fill="none" xmlns="http://www.w3.org/2000/svg">
<path d="M16.2763 9.08057C17.2743 9.08141 18.2626 9.27819 19.1844 9.66085C20.1063 10.0435 20.9433 10.6049 21.6486 11.3113C22.3538 12.0176 22.9137 12.8557 23.295 13.7781C23.6762 14.7007 23.8719 15.6895 23.8712 16.6877C23.8704 17.6858 23.6722 18.674 23.2896 19.5958C23.0541 20.1628 22.7506 20.6974 22.388 21.1895C22.3216 21.3343 22.2306 21.471 22.1114 21.5903C22.0637 21.6379 22.0113 21.6793 21.959 21.7185C21.8562 21.8347 21.7506 21.9486 21.6404 22.0586L21.6418 22.06C20.5098 23.192 18.7733 24.3126 16.9146 25.3351C15.0294 26.3722 12.9118 27.3651 10.939 28.2258C8.96322 29.0878 7.1145 29.8243 5.76106 30.3444C5.08404 30.6047 4.52913 30.8111 4.14304 30.953C3.95032 31.0239 3.79963 31.0791 3.69635 31.1164C3.64468 31.135 3.60471 31.1498 3.5776 31.1595C3.56413 31.1643 3.5537 31.1678 3.54656 31.1704C3.54321 31.1715 3.54037 31.1723 3.53847 31.173L3.53576 31.1744C3.53555 31.1744 3.53467 31.1743 3.07289 29.8721L3.53576 31.1744C3.03363 31.3522 2.4726 31.2258 2.09586 30.8491C1.71905 30.4723 1.59234 29.9115 1.77063 29.4092L1.77199 29.4066C1.77265 29.4046 1.77348 29.4019 1.77468 29.3984C1.7772 29.3914 1.78072 29.3807 1.78548 29.3675C1.79518 29.3404 1.81003 29.3003 1.82866 29.2486C1.86593 29.1455 1.92101 28.9946 1.99196 28.802C2.13394 28.4163 2.34028 27.8618 2.60057 27.1853C3.12099 25.8329 3.85769 23.9851 4.72061 22.0099C5.58215 20.0381 6.57756 17.9215 7.61662 16.0358C8.64132 14.1761 9.76357 12.4382 10.8986 11.3032L11.1698 11.0454C11.8162 10.4606 12.5594 9.99046 13.3668 9.6568C14.2891 9.27562 15.2782 9.07978 16.2763 9.08057ZM16.2735 11.8443C15.6383 11.8438 15.0092 11.9687 14.4221 12.2114C13.8349 12.454 13.3008 12.8097 12.8513 13.2586C12.2039 13.9062 11.4855 14.9066 10.738 16.1491L12.8499 18.2517L12.9457 18.357C13.3893 18.8985 13.3595 19.6986 12.8553 20.2058C12.3508 20.7128 11.5504 20.7466 11.0065 20.3055L10.9013 20.2112L9.34801 18.6659C8.60931 20.1048 7.89835 21.641 7.2536 23.1166C6.54691 24.734 5.92574 26.2674 5.44259 27.5025C6.67907 27.0194 8.21454 26.3992 9.83382 25.6928C11.7648 24.8503 13.799 23.8941 15.5826 22.9129C17.0562 22.1021 18.2883 21.3066 19.152 20.585L16.758 18.191L16.6622 18.0857C16.2199 17.5429 16.2522 16.7427 16.758 16.2369C17.264 15.7311 18.0642 15.6996 18.6068 16.1425L18.7121 16.2369L20.8133 18.338C21.006 17.809 21.1069 17.2505 21.1075 16.6863L21.1021 16.4475C21.0751 15.8936 20.9525 15.3482 20.7404 14.8348C20.4978 14.2477 20.1419 13.7136 19.6931 13.264C19.2444 12.8145 18.7116 12.4576 18.1251 12.2141C17.5384 11.9705 16.9089 11.8448 16.2735 11.8443Z" fill="#FF8D28"/>
<path d="M25.4306 8.22949C27.3679 8.22949 28.8796 9.12159 29.8541 9.92849C30.3476 10.3371 30.7285 10.7447 30.9878 11.0513C31.1181 11.2054 31.2197 11.3367 31.2914 11.4332C31.3272 11.4814 31.3568 11.5206 31.3778 11.5506C31.3883 11.5655 31.3967 11.5785 31.4034 11.5884C31.4065 11.593 31.4092 11.5971 31.4115 11.6005C31.4128 11.6023 31.4146 11.6044 31.4155 11.6059L31.4169 11.6086C31.4172 11.609 31.4179 11.6099 30.2672 12.3751L31.4169 13.1416L31.4155 13.1443C31.4146 13.1458 31.4128 13.1479 31.4115 13.1497C31.4092 13.1532 31.4065 13.1573 31.4034 13.1619C31.3967 13.1718 31.3883 13.1847 31.3778 13.1997C31.3568 13.2296 31.3272 13.2688 31.2914 13.3171C31.2197 13.4136 31.1181 13.5449 30.9878 13.699C30.7285 14.0055 30.3476 14.4131 29.8541 14.8217C28.8796 15.6286 27.3679 16.5207 25.4306 16.5207C23.4932 16.5207 21.9815 15.6286 21.007 14.8217C20.5135 14.4131 20.1327 14.0055 19.8734 13.699C19.7431 13.5449 19.6414 13.4136 19.5698 13.3171C19.5339 13.2688 19.5044 13.2296 19.4834 13.1997C19.4729 13.1847 19.4645 13.1718 19.4577 13.1619C19.4546 13.1573 19.4519 13.1532 19.4496 13.1497C19.4485 13.1479 19.4465 13.1458 19.4456 13.1443L19.4442 13.1416C19.4439 13.1412 19.4434 13.1403 20.5941 12.3751C19.5887 11.4403 19.5817 11.4335 19.582 11.4332L19.5968 11.4197C19.6039 11.4121 19.6131 11.4012 19.6251 11.3886C19.6493 11.3633 19.6835 11.3281 19.7262 11.2847C19.8118 11.1983 19.9331 11.0778 20.0853 10.9352C20.3884 10.651 20.8215 10.2694 21.3363 9.88531C22.2954 9.16954 23.8181 8.22949 25.4306 8.22949ZM25.4306 10.9932C24.777 10.9932 23.8818 11.4351 22.9894 12.1012C22.8216 12.2263 22.6634 12.3515 22.5185 12.4723C22.5968 12.5448 22.6806 12.6186 22.7694 12.6922C23.4635 13.2671 24.3696 13.757 25.4306 13.757C26.4916 13.757 27.3976 13.2671 28.0918 12.6922C28.2201 12.586 28.3362 12.4779 28.4427 12.3751C28.3362 12.2723 28.2201 12.1642 28.0918 12.058C27.3976 11.4831 26.4916 10.9932 25.4306 10.9932ZM20.5941 12.3751L19.443 13.1403C19.0892 12.6081 19.1468 11.9013 19.582 11.4332L20.5941 12.3751ZM31.4183 11.61C31.7263 12.0734 31.7263 12.6768 31.4183 13.1403L30.2672 12.3751L31.4183 11.61Z" fill="#FF8D28"/>
<path d="M21.5602 13.4234C21.0918 13.8539 20.3897 13.9091 19.8599 13.557L20.625 12.4059L21.5602 13.4234ZM22.0069 7.5693C22.0069 6.5083 21.517 5.60225 20.9421 4.90812C20.8356 4.77956 20.7279 4.66254 20.625 4.5559C20.522 4.66254 20.4144 4.77956 20.3079 4.90812C19.733 5.60225 19.2431 6.5083 19.2431 7.5693C19.2431 8.63032 19.733 9.53638 20.3079 10.2305C20.3823 10.3204 20.4571 10.4049 20.5305 10.4842C20.6504 10.3409 20.776 10.1858 20.9003 10.02C21.563 9.13524 22.0069 8.23801 22.0069 7.5693ZM24.7706 7.5693C24.7706 9.1942 23.8326 10.7157 23.1135 11.6758C22.7285 12.1896 22.3457 12.6199 22.0609 12.9214C21.9176 13.0729 21.7968 13.1939 21.71 13.279C21.6665 13.3215 21.6316 13.3561 21.6061 13.3802C21.5938 13.3918 21.584 13.4015 21.5764 13.4085C21.5725 13.4121 21.5681 13.4156 21.5656 13.418L21.5615 13.422C21.5614 13.4223 21.5607 13.4228 20.625 12.4059L19.8585 13.5556L19.8558 13.5543C19.8543 13.5533 19.8523 13.5515 19.8505 13.5502C19.847 13.5479 19.8429 13.5453 19.8383 13.5421C19.8283 13.5354 19.8154 13.527 19.8004 13.5165C19.7706 13.4955 19.7313 13.4659 19.6831 13.4301C19.5865 13.3585 19.4552 13.2568 19.3012 13.1265C18.9947 12.8672 18.587 12.4863 18.1784 11.9929C17.3715 11.0184 16.4794 9.5066 16.4794 7.5693C16.4794 5.63201 17.3715 4.1202 18.1784 3.14569C18.587 2.65227 18.9947 2.2714 19.3012 2.01212C19.4552 1.88178 19.5865 1.78015 19.6831 1.70848C19.7313 1.67268 19.7706 1.64311 19.8004 1.62211C19.8154 1.61165 19.8283 1.60322 19.8383 1.59648C19.8429 1.59334 19.847 1.5907 19.8505 1.58838C19.8523 1.58715 19.8543 1.58532 19.8558 1.58433L19.8585 1.58298C19.8589 1.5827 19.8597 1.5821 20.4644 2.49119L19.8599 1.58164C20.3233 1.27357 20.9267 1.27357 21.3901 1.58164L20.625 2.73274L21.3915 1.58298L21.3941 1.58433C21.3957 1.58532 21.3977 1.58715 21.3995 1.58838C21.403 1.5907 21.4071 1.59334 21.4117 1.59648C21.4216 1.60322 21.4346 1.61165 21.4496 1.62211C21.4794 1.64311 21.5187 1.67268 21.5669 1.70848C21.6635 1.78015 21.7948 1.88178 21.9488 2.01212C22.2553 2.2714 22.663 2.65227 23.0716 3.14569C23.8785 4.1202 24.7706 5.63201 24.7706 7.5693Z" fill="#FF8D28"/>
</svg>
