<svg width="20" height="20" viewBox="0 0 20 20" fill="none" xmlns="http://www.w3.org/2000/svg">
<path d="M8.31999 10.2036C8.31999 9.54309 8.00406 8.85004 7.2063 8.19916C6.67345 7.76446 6.20515 7.22719 5.83243 6.62832C5.46005 7.23 4.99014 7.7703 4.44801 8.20402C3.65384 8.83933 3.33999 9.54467 3.33999 10.2036C3.34008 11.5985 4.47313 12.7349 5.82999 12.7349C7.18686 12.7349 8.3199 11.5985 8.31999 10.2036ZM9.97999 10.2036C9.97991 12.4938 8.12502 14.3949 5.82999 14.3949C3.53497 14.3949 1.68008 12.4938 1.67999 10.2036C1.67999 8.95371 2.29589 7.79978 3.41051 6.90796C4.21325 6.26576 4.81399 5.28314 5.0162 4.27206L5.03404 4.20073C5.13688 3.85045 5.45912 3.60498 5.82999 3.60498C6.22559 3.60498 6.56613 3.88418 6.64378 4.27206C6.84493 5.27776 7.45094 6.25674 8.25515 6.91282C9.34961 7.80564 9.97999 8.93869 9.97999 10.2036Z" fill="#D1D5DB"/>
<path d="M11.6719 1.7251C12.0662 1.72672 12.405 2.00554 12.4824 2.39218L12.5618 2.74315C13.0012 4.49341 14.0881 6.16629 15.5074 7.30167C17.3154 8.74813 18.3075 10.5456 18.3087 12.5118L18.3046 12.7574C18.2642 13.9831 17.8843 15.1752 17.2047 16.1999C16.4796 17.2929 15.4462 18.1466 14.2356 18.6518C13.0252 19.1568 11.6918 19.291 10.405 19.0376C9.1985 18.7999 8.0836 18.2314 7.18387 17.3978L7.00717 17.2277L6.94962 17.1644C6.68369 16.8387 6.70217 16.3581 7.00555 16.054C7.309 15.7498 7.7897 15.7303 8.116 15.9956L8.17922 16.0523L8.31215 16.1804C8.98635 16.8049 9.82191 17.2311 10.726 17.4092C11.6903 17.5992 12.6898 17.4983 13.5969 17.1198C14.5039 16.7413 15.2778 16.1013 15.8211 15.2823C16.3644 14.4632 16.6526 13.5013 16.6487 12.5183V12.5151L16.6405 12.2614C16.5616 10.9938 15.8862 9.73168 14.4699 8.59856C13.3086 7.6695 12.3357 6.44329 11.667 5.08239C11.5183 5.38455 11.3558 5.6803 11.1766 5.9667C10.9335 6.35525 10.4215 6.4733 10.033 6.23012C9.64446 5.98699 9.5266 5.47497 9.76954 5.08644C10.2883 4.25756 10.656 3.34294 10.8557 2.3857L10.8743 2.31437C10.9796 1.9661 11.3023 1.7236 11.6719 1.7251Z" fill="#D1D5DB"/>
</svg>
