<svg width="33" height="33" viewBox="0 0 33 33" fill="none" xmlns="http://www.w3.org/2000/svg">
<path d="M16.5156 1.29932C19.6554 1.33473 22.4759 3.76583 24.4614 6.56231C26.4964 9.42843 27.9689 13.1014 28.2414 16.3852L28.2831 16.998C28.4502 20.0889 27.9524 23.5626 26.2927 26.3809C24.5268 29.3792 21.5017 31.5251 16.9556 31.6912L16.5116 31.7006H16.4887C11.6946 31.662 8.53048 29.4757 6.70759 26.3809C4.9372 23.3746 4.48856 19.623 4.75894 16.3852L4.82371 15.7659C5.21729 12.646 6.62978 9.24941 8.5375 6.56231C10.523 3.76573 13.3448 1.33469 16.4847 1.29932H16.5156ZM16.4995 4.06307C14.7369 4.09175 12.6312 5.57109 10.7911 8.16281C9.10726 10.5347 7.89724 13.503 7.56721 16.1004L7.51324 16.6146C7.27239 19.4983 7.7012 22.6221 9.08809 24.9775C10.4215 27.2415 12.6919 28.9016 16.4995 28.9354C20.3076 28.9019 22.5774 27.2418 23.9109 24.9775C25.2112 22.7694 25.671 19.8864 25.5249 17.1585L25.487 16.6146C25.2619 13.9012 24.004 10.6928 22.2079 8.16281C20.3673 5.57054 18.2622 4.09115 16.4995 4.06307Z" fill="#FF8D28"/>
</svg>
