<svg width="33" height="33" viewBox="0 0 33 33" fill="none" xmlns="http://www.w3.org/2000/svg">
<path d="M28.9023 7.55951C28.9023 7.10579 28.8129 6.65619 28.6392 6.23701C28.4656 5.81785 28.2111 5.43641 27.8902 5.11559C27.5696 4.79501 27.189 4.54018 26.7702 4.36663C26.3511 4.19301 25.9013 4.10348 25.4476 4.10348C24.5315 4.10348 23.6529 4.46796 23.0051 5.11559C22.7441 5.3765 22.3889 5.52236 22.02 5.52044C21.6512 5.51843 21.2984 5.36957 21.0402 5.10614C20.6241 4.68132 20.1053 4.37032 19.5341 4.20469C18.9631 4.03912 18.3586 4.02388 17.7798 4.16015C17.2011 4.29647 16.6677 4.58036 16.2306 4.98333C15.7934 5.38638 15.4674 5.8952 15.2846 6.46103C15.1583 6.85205 14.8646 7.16667 14.4831 7.31929C14.1014 7.47189 13.6715 7.44659 13.3103 7.25048C12.7387 6.94002 12.0905 6.79748 11.4413 6.83889C10.7925 6.88033 10.1685 7.10375 9.64109 7.48393C9.1135 7.86447 8.7031 8.38701 8.45894 8.98997C8.21488 9.59282 8.14642 10.2524 8.26057 10.8927C8.38864 11.6111 7.93583 12.3057 7.22686 12.4784C6.57428 12.6374 5.96957 12.9518 5.46578 13.396C4.96198 13.8403 4.57432 14.4014 4.33491 15.0289C4.09562 15.6564 4.01208 16.3324 4.092 16.9992C4.17189 17.6656 4.41188 18.3031 4.79238 18.8561C5.32406 19.6275 5.98566 20.5709 6.459 21.5794C6.90948 22.5392 7.24371 23.6645 7.1189 24.8951L7.08785 25.142C7.08678 25.1492 7.08501 25.1564 7.08382 25.1636C7.02767 25.5002 6.95425 25.8206 6.86655 26.1271C7.18971 26.0372 7.52732 25.9655 7.88135 25.9165L8.07028 25.9031C10.3275 25.9026 12.5007 26.7458 14.1686 28.262C14.7104 28.629 15.331 28.8639 15.981 28.9448C16.6522 29.0284 17.3338 28.9463 17.9661 28.706C18.5986 28.4654 19.1635 28.073 19.6097 27.5643C20.0558 27.0558 20.3699 26.4452 20.526 25.7871L20.5639 25.6574C20.7821 25.0198 21.4378 24.626 22.1144 24.7466C22.7546 24.8606 23.4144 24.7909 24.0172 24.5468C24.6198 24.3026 25.1414 23.8935 25.5218 23.366C25.9024 22.8384 26.1269 22.2137 26.1682 21.5645C26.2095 20.9157 26.0668 20.2681 25.7567 19.6969C25.5605 19.3356 25.5353 18.9057 25.6879 18.5241C25.8404 18.1425 26.155 17.8489 26.5462 17.7224C27.1118 17.5396 27.6209 17.2136 28.0238 16.7765C28.4269 16.3393 28.7094 15.8048 28.8456 15.2259C28.9819 14.6472 28.9667 14.0426 28.8011 13.4716C28.6354 12.9009 28.3255 12.3828 27.901 11.9669C27.6374 11.7088 27.4872 11.3548 27.4853 10.9859C27.4836 10.6172 27.6296 10.2629 27.8902 10.0021C28.2111 9.68126 28.4656 9.29982 28.6392 8.88066C28.8126 8.46173 28.9023 8.01294 28.9023 7.55951ZM31.666 7.55951C31.666 8.37599 31.5049 9.18431 31.1925 9.93865C31.0428 10.2997 30.8593 10.6445 30.6459 10.9697C31.0019 11.5002 31.2762 12.0839 31.4556 12.7024C31.7536 13.7304 31.7818 14.8184 31.5365 15.8602C31.2913 16.9017 30.7815 17.8628 30.0561 18.6495C29.6638 19.0752 29.2128 19.438 28.7229 19.7373C28.8969 20.3871 28.9698 21.0634 28.9266 21.7412C28.852 22.9096 28.4482 24.0332 27.7633 24.9828C27.0783 25.9323 26.1388 26.6701 25.0536 27.1095C24.3458 27.3961 23.5943 27.5445 22.8378 27.5589C22.5524 28.2225 22.1662 28.8407 21.6867 29.3875C20.9429 30.2352 20.0026 30.888 18.9485 31.2889C17.8945 31.6896 16.7585 31.8263 15.6396 31.687C14.6601 31.5651 13.7199 31.2351 12.8812 30.7208L12.529 30.49L12.3778 30.3671C11.2349 29.2978 9.73546 28.6931 8.17285 28.6681C6.87854 28.8679 5.96085 29.4851 4.81398 30.3901L3.53736 31.4103C2.9861 31.8453 2.19575 31.7978 1.70071 31.2996C1.20573 30.8016 1.16378 30.0116 1.6022 29.463C3.07942 27.6158 4.05089 26.5493 4.35785 24.7088C4.44036 24.1238 4.30314 23.4908 3.95705 22.7534C3.68891 22.1822 3.33205 21.619 2.93144 21.0273L2.51715 20.4255V20.4241C1.88233 19.5022 1.4804 18.4399 1.34714 17.3285C1.21392 16.217 1.35314 15.0897 1.75199 14.0437C2.15104 12.9978 2.7988 12.0637 3.63857 11.3232C4.17949 10.8463 4.79028 10.4598 5.44689 10.1735C5.46068 9.41499 5.61032 8.66165 5.89762 7.95221C6.33711 6.86696 7.07478 5.92737 8.02441 5.24243C8.97395 4.55775 10.0976 4.15502 11.2659 4.08052C11.9428 4.03737 12.6181 4.10807 13.2672 4.2816C13.5664 3.79195 13.9321 3.34316 14.3575 2.95101C15.1445 2.22565 16.1051 1.71592 17.1469 1.47062C18.1887 1.22531 19.2768 1.25211 20.3048 1.55024C20.9226 1.72949 21.5047 2.00569 22.0348 2.36128C23.041 1.70059 24.2256 1.33973 25.4476 1.33973C26.264 1.33973 27.0725 1.50105 27.8268 1.81339C28.5811 2.12584 29.2669 2.58426 29.8443 3.16154C30.4216 3.7389 30.8799 4.42467 31.1925 5.17902C31.5049 5.93351 31.666 6.74286 31.666 7.55951Z" fill="#FF8D28"/>
<path d="M22.5478 8.50879C23.0906 8.06611 23.8907 8.09732 24.3966 8.60326C24.9025 9.10917 24.9337 9.90929 24.4911 10.4521L24.3966 10.5573L3.6685 31.2854C3.12883 31.8251 2.25409 31.8251 1.71443 31.2854C1.17478 30.7458 1.17478 29.871 1.71443 29.3314L22.4426 8.60326L22.5478 8.50879Z" fill="#FF8D28"/>
</svg>
