<svg width="20" height="20" viewBox="0 0 20 20" fill="none" xmlns="http://www.w3.org/2000/svg">
<path d="M14.15 6.66986C14.15 5.56922 13.7124 4.51396 12.9342 3.73568C12.2046 3.00607 11.2316 2.57563 10.2058 2.52473L10 2.51986C8.89934 2.51986 7.8441 2.95741 7.06582 3.73568C6.28755 4.51396 5.85 5.56922 5.85 6.66986L5.85648 6.92437C5.89058 7.52998 6.0757 8.21189 6.85184 8.98805C7.44022 9.57644 8.03194 10.3214 8.27921 11.29L8.32379 11.4869L8.33595 11.5713C8.37627 11.9899 8.09421 12.3794 7.67292 12.4637C7.25143 12.5479 6.84096 12.2968 6.71729 11.8946L6.69621 11.8128L6.64029 11.5931C6.50592 11.1597 6.23837 10.7613 5.87026 10.3619L5.67817 10.1617C4.56579 9.04931 4.26103 7.96985 4.20216 7.05244L4.19 6.66986C4.19 5.12895 4.80175 3.65079 5.89134 2.5612C6.98093 1.47161 8.45911 0.859863 10 0.859863L10.2878 0.867159C11.7239 0.938315 13.0871 1.53963 14.1087 2.5612C15.1983 3.65079 15.81 5.12895 15.81 6.66986C15.81 7.94052 15.3252 9.23905 14.3211 10.1609L14.3218 10.1617C13.7127 10.7708 13.4241 11.2111 13.3038 11.8128C13.2138 12.2622 12.7765 12.5536 12.3271 12.4637C11.8777 12.3737 11.5863 11.9364 11.6762 11.4869C11.8879 10.4287 12.4293 9.70683 13.1482 8.98805L13.1798 8.95801C13.8137 8.38755 14.15 7.54368 14.15 6.66986Z" fill="#38CC62"/>
<path d="M12.49 14.1699C12.9484 14.1699 13.32 14.5415 13.32 14.9999C13.32 15.4583 12.9484 15.8299 12.49 15.8299L7.50999 15.8299C7.0516 15.8299 6.67999 15.4583 6.67999 14.9999C6.67999 14.5415 7.0516 14.1699 7.50999 14.1699L12.49 14.1699Z" fill="#38CC62"/>
<path d="M11.66 17.5C12.1184 17.5 12.49 17.8716 12.49 18.33C12.49 18.7884 12.1184 19.16 11.66 19.16H8.34001C7.88162 19.16 7.51001 18.7884 7.51001 18.33C7.51001 17.8716 7.88162 17.5 8.34001 17.5H11.66Z" fill="#38CC62"/>
</svg>
