<svg width="20" height="20" viewBox="0 0 20 20" fill="none" xmlns="http://www.w3.org/2000/svg">
<path d="M10.1544 1.69268C10.5375 1.71804 10.9106 1.83172 11.2438 2.02582C11.6233 2.24705 11.9377 2.56465 12.1548 2.94659L18.7932 14.5634L18.8701 14.7076C19.0385 15.0491 19.1261 15.4254 19.1263 15.8075C19.1265 16.2444 19.0122 16.6741 18.794 17.0525C18.5757 17.431 18.2611 17.7448 17.8829 17.9636C17.5048 18.1823 17.0756 18.2979 16.6388 18.2984L3.35793 18.2984C2.92164 18.3009 2.49231 18.189 2.11293 17.9733C1.73128 17.7564 1.41335 17.4423 1.19214 17.0631C0.971056 16.6839 0.85431 16.2529 0.853338 15.814C0.852385 15.3762 0.967246 14.946 1.18566 14.5666L7.82486 2.94659C8.04198 2.56453 8.35695 2.24708 8.73668 2.02582C9.11723 1.80415 9.5495 1.68704 9.98981 1.68701L10.1544 1.69268ZM9.88042 3.35431C9.7721 3.36872 9.66744 3.40436 9.5724 3.45968C9.4455 3.5336 9.34 3.63995 9.26763 3.76768L9.2668 3.77011L2.62681 15.3901L2.62438 15.3934C2.55121 15.5201 2.51301 15.6645 2.51334 15.8108C2.51372 15.9569 2.55245 16.1004 2.626 16.2266C2.69974 16.353 2.80599 16.4583 2.9332 16.5306C3.06033 16.6028 3.20443 16.6396 3.35063 16.6384L16.6371 16.6384C16.7827 16.6382 16.9261 16.6002 17.0521 16.5273C17.1781 16.4544 17.2825 16.3494 17.3552 16.2234C17.428 16.0972 17.4664 15.954 17.4663 15.8084C17.4663 15.6627 17.4281 15.5195 17.3552 15.3934L17.3537 15.3901L10.7137 3.77011L10.712 3.76768C10.6396 3.64001 10.5349 3.53357 10.408 3.45968C10.2812 3.38576 10.1366 3.34701 9.98981 3.34701L9.88042 3.35431Z" fill="#407EDC"/>
<path d="M9.16998 10.8302L9.16998 7.51018C9.16998 7.05178 9.54157 6.68018 9.99998 6.68018C10.4584 6.68018 10.83 7.05178 10.83 7.51018L10.83 10.8302C10.83 11.2886 10.4584 11.6602 9.99998 11.6602C9.54157 11.6602 9.16998 11.2886 9.16998 10.8302Z" fill="#407EDC"/>
<path d="M10.0081 13.3403L10.0932 13.3444C10.5117 13.3869 10.8381 13.7406 10.8381 14.1703C10.8381 14.6001 10.5117 14.9538 10.0932 14.9963L10.0081 15.0003H9.99998C9.54157 15.0003 9.16998 14.6287 9.16998 14.1703C9.16998 13.7119 9.54157 13.3403 9.99998 13.3403H10.0081Z" fill="#407EDC"/>
</svg>
