<svg width="33" height="33" viewBox="0 0 33 33" fill="none" xmlns="http://www.w3.org/2000/svg">
<path d="M2.72241 12.3851L2.72241 2.71195C2.72241 1.94877 3.34111 1.33008 4.10429 1.33008C4.86747 1.33008 5.48616 1.94877 5.48616 2.71195L5.48616 12.3851C5.48616 13.142 6.11116 13.767 6.86804 13.767H12.3955C12.762 13.767 13.1134 13.6213 13.3726 13.3621C13.6317 13.1029 13.7774 12.7516 13.7774 12.3851L13.7774 2.71195C13.7774 1.94877 14.3961 1.33008 15.1593 1.33008C15.9225 1.33008 16.5412 1.94877 16.5412 2.71195L16.5412 12.3851C16.5412 13.4846 16.1041 14.5387 15.3266 15.3162C14.5492 16.0936 13.495 16.5307 12.3955 16.5307H6.86804C4.58479 16.5307 2.72241 14.6684 2.72241 12.3851Z" fill="#FF8D28"/>
<path d="M8.25 30.3187L8.25 2.68119C8.25 1.91801 8.86869 1.29932 9.63188 1.29932C10.3951 1.29932 11.0138 1.91801 11.0138 2.68119L11.0138 30.3187C11.0138 31.0819 10.3951 31.7006 9.63188 31.7006C8.86869 31.7006 8.25 31.0819 8.25 30.3187Z" fill="#FF8D28"/>
<path d="M27.5034 30.3187V22.0274H24.7396C22.4563 22.0274 20.594 20.1651 20.594 17.8818V9.59057C20.594 7.39159 21.4682 5.2833 23.0231 3.72839C24.5779 2.17348 26.6863 1.29932 28.8852 1.29932C29.2517 1.29932 29.6031 1.44501 29.8622 1.70416C30.1215 1.96332 30.2671 2.31469 30.2671 2.68119L30.2671 30.3187C30.2671 31.0819 29.6485 31.7006 28.8852 31.7006C28.122 31.7006 27.5034 31.0819 27.5034 30.3187ZM23.3577 17.8818C23.3577 18.6387 23.9828 19.2637 24.7396 19.2637H27.5034L27.5034 4.23985C26.5555 4.48468 25.6812 4.97841 24.9772 5.68246C23.9405 6.71906 23.3577 8.12458 23.3577 9.59057V17.8818Z" fill="#FF8D28"/>
</svg>
