<svg width="50" height="50" viewBox="0 0 50 50" fill="none" xmlns="http://www.w3.org/2000/svg">
<path d="M0 25C0 11.1929 11.1929 0 25 0C38.8071 0 50 11.1929 50 25C50 38.8071 38.8071 50 25 50C11.1929 50 0 38.8071 0 25Z" fill="#3D3D3D"/>
<g clip-path="url(#clip0_15_92)">
<path d="M25.164 34.2819C26.168 35.2871 26.1618 36.9044 25.164 37.9021L22.9062 40.1599C21.9168 41.1519 20.2904 41.1644 19.2859 40.1599L9.83948 30.7135C8.84178 29.7151 8.84178 28.0909 9.83948 27.0932L12.0973 24.8354C13.095 23.8376 14.7123 23.8314 15.7175 24.8354L25.164 34.2819ZM10.2201 33.1737C9.9891 32.9428 9.60512 32.9852 9.42683 33.2589C8.71858 34.3459 8.937 35.6564 9.7486 36.4681L13.5314 40.2509C14.336 41.0554 15.6455 41.2869 16.7402 40.573C17.014 40.3945 17.0569 40.0106 16.8258 39.7795L10.2201 33.1737ZM26.7165 19.797C26.3166 19.3977 25.6683 19.3977 25.2683 19.797L19.7966 25.2687C19.3967 25.6686 19.3967 26.3169 19.7966 26.7169L23.2825 30.2028C23.6811 30.6014 24.3294 30.6028 24.7307 30.2028L30.2024 24.7311C30.6024 24.3311 30.6024 23.6828 30.2024 23.2829L26.7165 19.797ZM39.7802 16.8249C40.0114 17.056 40.3954 17.013 40.5739 16.7391C41.2872 15.6441 41.0529 14.3343 40.2505 13.5318L36.4676 9.74895C35.658 8.93991 34.3484 8.71695 33.26 9.42584C32.9862 9.60413 32.9436 9.98817 33.1746 10.2192L39.7802 16.8249ZM30.7131 9.83983C29.7148 8.84213 28.0905 8.84149 27.0928 9.83983L24.8351 12.0976C23.8373 13.0953 23.8311 14.7126 24.8351 15.7179L34.2815 25.1643C35.2877 26.1693 36.9051 26.1611 37.9018 25.1643L40.1596 22.9066C41.1573 21.9089 41.1573 20.2846 40.1596 19.2863L30.7131 9.83983Z" fill="#E1E1E1"/>
</g>
<defs>
<clipPath id="clip0_15_92">
<rect width="32" height="32" fill="white" transform="translate(9 9)"/>
</clipPath>
</defs>
</svg>
