<svg width="50" height="50" viewBox="0 0 50 50" fill="none" xmlns="http://www.w3.org/2000/svg">
<path d="M0 25C0 11.1929 11.1929 0 25 0C38.8071 0 50 11.1929 50 25C50 38.8071 38.8071 50 25 50C11.1929 50 0 38.8071 0 25Z" fill="#7CA0FE"/>
<g clip-path="url(#clip0_15_115)">
<path d="M40.8077 20.0074L37.1794 13.739C36.815 13.0992 36.3695 13.3502 34.0047 13.7876C32.8401 12.8453 31.5335 12.0935 30.1335 11.5604C29.4289 9.5276 29.3722 8.77441 28.5866 8.77441H21.3463C20.5931 8.77441 20.5364 9.32513 19.7994 11.5604C18.3994 12.0935 17.0928 12.8453 15.9282 13.7876C13.6443 13.3583 13.126 13.083 12.7535 13.739L9.12519 20.0074C8.76885 20.6392 9.18188 20.8983 10.745 22.7367C10.506 24.2173 10.506 25.7267 10.745 27.2073C9.24667 28.9485 8.73645 29.2806 9.12519 29.9366L12.7535 36.205C13.1179 36.8448 13.6119 36.5938 15.9282 36.1565C17.0928 37.0988 18.3994 37.8505 19.7994 38.3836L20.6093 40.627C20.6671 40.7931 20.7773 40.9359 20.9234 41.0338C21.0696 41.1317 21.2436 41.1794 21.4192 41.1696H28.6595C29.4127 41.1696 29.4694 40.6189 30.2064 38.3836C31.6064 37.8505 32.913 37.0988 34.0776 36.1565C36.3614 36.5857 36.8798 36.861 37.2523 36.205L40.8806 29.9366C41.2369 29.3049 40.8239 29.0457 39.2608 27.2073C39.4998 25.7267 39.4998 24.2173 39.2608 22.7367C40.67 20.9955 41.164 20.6635 40.8077 20.0074ZM35.4706 25.6766C35.3293 27.7418 34.5824 29.7196 33.3232 31.3626C32.064 33.0056 30.3484 34.241 28.3909 34.9142C26.4334 35.5875 24.3208 35.6687 22.3174 35.1478C20.3139 34.6269 18.5085 33.527 17.1268 31.9856C13.8387 28.6975 13.3042 22.4047 16.9729 18.1285C23.8974 10.3375 36.1428 15.8852 35.4949 25.6766H35.4706Z" fill="#E1E1E1"/>
<path d="M27.7442 19.1246C27.6209 19.0659 27.4848 19.0393 27.3485 19.0473C27.2122 19.0553 27.0801 19.0976 26.9646 19.1704C26.849 19.2431 26.7537 19.3438 26.6876 19.4633C26.6214 19.5827 26.5865 19.7169 26.5861 19.8535V24.5346L24.9663 25.6198L23.3466 24.5346V19.8535C23.3462 19.7169 23.3113 19.5827 23.2451 19.4633C23.1789 19.3438 23.0836 19.2431 22.9681 19.1704C22.8525 19.0976 22.7205 19.0553 22.5841 19.0473C22.4478 19.0393 22.3117 19.0659 22.1884 19.1246C21.1241 19.6324 20.2186 20.421 19.5694 21.4055C18.9202 22.39 18.552 23.533 18.5045 24.7112C18.457 25.8895 18.732 27.0585 19.2998 28.092C19.8677 29.1255 20.7068 29.9845 21.7268 30.5763V33.2651C23.809 34.0831 26.1236 34.0831 28.2059 33.2651V30.5763C29.2259 29.9845 30.065 29.1255 30.6328 28.092C31.2007 27.0585 31.4756 25.8895 31.4281 24.7112C31.3806 23.533 31.0125 22.39 30.3633 21.4055C29.7141 20.421 28.8085 19.6324 27.7442 19.1246Z" fill="#E1E1E1"/>
</g>
<defs>
<clipPath id="clip0_15_115">
<rect width="32" height="32" fill="white" transform="translate(9 9)"/>
</clipPath>
</defs>
</svg>
