<svg xmlns="http://www.w3.org/2000/svg" viewBox="0 0 832 768"><defs><style>.cls-1{fill:#fff;}</style></defs><title>icon</title><g id="Layer_2" data-name="Layer 2"><g id="Layer_1-2" data-name="Layer 1"><path class="cls-1" d="M784,96H48A48,48,0,0,1,48,0H784a48,48,0,0,1,0,96ZM48,448H464a48,48,0,0,1,0,96H48a48,48,0,0,1,0-96Zm0-224H464a48,48,0,0,1,0,96H48a48,48,0,0,1,0-96ZM784,768H48a48,48,0,0,1,0-96H784a48,48,0,0,1,0,96Zm37.4-406.6L694.6,234.6c-20.2-20.2-54.6-5.9-54.6,22.6V510.7c0,28.5,34.5,42.8,54.6,22.6L821.3,406.6a31.84,31.84,0,0,0,.1-45.2Z"/></g></g></svg>