<svg xmlns="http://www.w3.org/2000/svg" width="1200" height="1050" viewBox="-40 194 1104 820">
  <g fill="white">
    <!-- LEFT: nub (breiter nach außen: x=112) + weight -->
    <path d="M 130 623 A 18 18 0 0 0 112 641 L 112 660 A 18 18 0 0 0 130 678 L 162 678 L 162 623 Z"/>
    <rect x="142" y="572" width="50" height="162" rx="18"/>

    <!-- RIGHT: nub (breiter nach außen: bis x=912) + weight -->
    <path d="M 894 623 A 18 18 0 0 1 912 641 L 912 660 A 18 18 0 0 1 894 678 L 862 678 L 862 623 Z"/>
    <rect x="832" y="572" width="50" height="162" rx="18"/>

    <!-- CALENDAR: oberer Teil -->
    <path d="
      M 297 240
      C 240 240, 207 273, 207 330
      L 207 495
      A 18 18 0 0 0 225 513
      L 239 513
      A 18 18 0 0 0 257 495
      L 257 348
      L 767 348
      L 767 495
      A 18 18 0 0 0 785 513
      L 799 513
      A 18 18 0 0 0 817 495
      L 817 330
      C 817 273, 784 240, 727 240
      Z
    "/>

    <!-- CALENDAR: unterer Teil -->
    <path fill-rule="evenodd" d="
      M 817 561
      A 18 18 0 0 0 799 543
      L 785 543
      A 18 18 0 0 0 767 561
      L 767 605
      A 18 18 0 0 1 749 623
      L 275 623
      A 18 18 0 0 1 257 605
      L 257 561
      A 18 18 0 0 0 239 543
      L 225 543
      A 18 18 0 0 0 207 561
      L 207 732
      C 207 799, 250 852, 317 852
      L 707 852
      C 774 852, 817 799, 817 732
      Z

      M 767 696
      A 18 18 0 0 0 749 678
      L 275 678
      A 18 18 0 0 0 257 696
      L 257 710
      C 257 755, 310 790, 392 790
      L 632 790
      C 714 790, 767 755, 767 710
      Z
    "/>

    <!-- Tabs -->
    <path d="M 334 252 L 334 214 A 18 18 0 0 1 352 196 L 396 196 A 18 18 0 0 1 414 214 L 414 252 Z"/>
    <path d="M 610 252 L 610 214 A 18 18 0 0 1 628 196 L 672 196 A 18 18 0 0 1 690 214 L 690 252 Z"/>

    <!-- Bars -->
    <path d="M 345 597 L 345 487 A 18 18 0 0 1 363 469 L 399 469 A 18 18 0 0 1 417 487 L 417 597 Z"/>
    <path d="M 478 597 L 478 442 A 18 18 0 0 1 496 424 L 532 424 A 18 18 0 0 1 550 442 L 550 597 Z"/>
    <path d="M 607 597 L 607 398 A 18 18 0 0 1 625 380 L 661 380 A 18 18 0 0 1 679 398 L 679 597 Z"/>
  </g>

  <!-- ORGAGYM Text -->
  <g fill="white" transform="translate(-28, 140) scale(1.5)">
    <path d="M65.25,523.8a51.32,51.32,0,1,0,51.31,51.31A51.32,51.32,0,0,0,65.25,523.8Zm0,81.93a30.62,30.62,0,1,1,30.62-30.62A30.62,30.62,0,0,1,65.25,605.73Z" transform="translate(-13.93 -22.23)"/>
    <path d="M209.55,558.3c0-20.59-15.33-32.29-34.6-32.29H133.27v96.71h21.25V591.09h14.66l17.63,31.63h22.74L191.92,588S209.55,578.9,209.55,558.3ZM173.1,574.37H154V543.31H173.1a15.53,15.53,0,0,1,0,31.06Z" transform="translate(-13.93 -22.23)"/>
    <path d="M318.77,570.83H273.3v17.45h23.83c-2.07,13.92-14.41,18.29-24.56,18.29-16.16,0-29.26-14.2-29.26-31.71s13.1-31.72,29.26-31.72c10.53,0,19.76,6.05,24.92,15.12l19.06-8.48a50.9,50.9,0,0,0-44.49-25.91c-28.06,0-50.81,22.49-50.81,50.25s22.75,50.25,50.81,50.25C295.71,624.37,322.72,610.69,318.77,570.83Z" transform="translate(-13.93 -22.23)"/>
    <path d="M384.51,526H366.22l-39.79,96.71h22.24l8.16-18.62h37.56l8.16,18.62h22.24ZM363,586.31,375.61,553l12.6,33.36Z" transform="translate(-13.93 -22.23)"/>
    <path d="M524.37,570.83H478.9v17.45h23.84c-2.07,13.92-14.41,18.29-24.57,18.29-16.15,0-29.25-14.2-29.25-31.71s13.1-31.72,29.25-31.72c10.53,0,19.77,6.05,24.92,15.12l19.06-8.48a50.88,50.88,0,0,0-44.48-25.91c-28.07,0-50.82,22.49-50.82,50.25s22.75,50.25,50.82,50.25C501.31,624.37,528.33,610.69,524.37,570.83Z" transform="translate(-13.93 -22.23)"/>
    <polygon points="514.15 503.79 536.88 503.79 558.88 543.33 581.37 503.79 604.6 503.79 570.25 562.85 570.25 602.14 548.5 602.14 548.5 562.85 514.15 503.79"/>
    <polygon points="700.48 503.79 720 503.79 720 600.41 700.48 600.41 700.48 540.36 677.5 589.78 660.69 589.78 637.71 539.13 637.71 600.41 618.19 600.41 618.19 503.79 637.71 503.79 640.9 503.79 669.55 567.39 697.64 503.79 700.48 503.79"/>
  </g>
</svg>
