<svg id="Layer_2" data-name="Layer 2" xmlns="http://www.w3.org/2000/svg" viewBox="0 0 720 604.2"><defs><style>.cls-1{fill:#fff;}</style></defs><path class="cls-1" d="M203.4,129.88h335V233.25H571v-127a46.94,46.94,0,0,0-46.94-46.95H497.66c0-.24,0-.49,0-.74V33.83a11.6,11.6,0,0,0-11.61-11.6H453.75a11.6,11.6,0,0,0-11.61,11.6V58.52c0,.25,0,.5,0,.74H301.46a13.12,13.12,0,0,0,.18-2.1v-22a13,13,0,0,0-13-13H257.82a13,13,0,0,0-13,13v22a13.12,13.12,0,0,0,.19,2.1H217.72a47,47,0,0,0-46.95,46.95v127H203.4Z" transform="translate(-13.93 -22.23)"/><path class="cls-1" d="M253.89,455.32H484c25.82,0,68.48-2.43,87-43.65a82.42,82.42,0,0,0,7-33.75V267.77A14.92,14.92,0,0,0,563,252.85H542a14.92,14.92,0,0,0-14.93,14.92v42.59H216V267.77A14.92,14.92,0,0,0,201,252.85H180a14.92,14.92,0,0,0-14.92,14.92V388.16C165.1,407.67,184.91,455.32,253.89,455.32ZM527.08,351.24v28.93a39.66,39.66,0,0,1-8.31,24.64C507.57,419,491.41,419.27,484,419.27H253.89c-15.15,0-37.93-20.3-37.93-38.08V351.24Z" transform="translate(-13.93 -22.23)"/><path class="cls-1" d="M451.2,157.7a14,14,0,0,0-14,14V291.37H484V171.69a14,14,0,0,0-14-14Z" transform="translate(-13.93 -22.23)"/><path class="cls-1" d="M361.55,187a12.37,12.37,0,0,0-12.36,12.37v92h46.75v-92A12.37,12.37,0,0,0,383.58,187Z" transform="translate(-13.93 -22.23)"/><path class="cls-1" d="M272.74,216.63a10.47,10.47,0,0,0-10.47,10.47v64.27H309V227.1a10.46,10.46,0,0,0-10.46-10.47Z" transform="translate(-13.93 -22.23)"/><path class="cls-1" d="M156,378.78V282a9.38,9.38,0,0,0-9.38-9.38H129.3a9.38,9.38,0,0,0-9.39,9.38v28.8a10.88,10.88,0,0,0-4-.77h-7.65a10.93,10.93,0,0,0-10.93,10.93v20.24a10.93,10.93,0,0,0,10.93,10.93h7.65a10.88,10.88,0,0,0,4-.77v27.44a9.38,9.38,0,0,0,9.39,9.38h17.28A9.38,9.38,0,0,0,156,378.78Z" transform="translate(-13.93 -22.23)"/><path class="cls-1" d="M647.45,341.18V320.94A10.92,10.92,0,0,0,636.53,310h-7.66a10.92,10.92,0,0,0-4,.77V282a9.38,9.38,0,0,0-9.38-9.38H598.19a9.38,9.38,0,0,0-9.38,9.38v96.8a9.38,9.38,0,0,0,9.38,9.38h17.29a9.38,9.38,0,0,0,9.38-9.38V351.34a10.92,10.92,0,0,0,4,.77h7.66A10.92,10.92,0,0,0,647.45,341.18Z" transform="translate(-13.93 -22.23)"/><path class="cls-1" d="M65.25,523.8a51.32,51.32,0,1,0,51.31,51.31A51.32,51.32,0,0,0,65.25,523.8Zm0,81.93a30.62,30.62,0,1,1,30.62-30.62A30.62,30.62,0,0,1,65.25,605.73Z" transform="translate(-13.93 -22.23)"/><path class="cls-1" d="M209.55,558.3c0-20.59-15.33-32.29-34.6-32.29H133.27v96.71h21.25V591.09h14.66l17.63,31.63h22.74L191.92,588S209.55,578.9,209.55,558.3ZM173.1,574.37H154V543.31H173.1a15.53,15.53,0,0,1,0,31.06Z" transform="translate(-13.93 -22.23)"/><path class="cls-1" d="M318.77,570.83H273.3v17.45h23.83c-2.07,13.92-14.41,18.29-24.56,18.29-16.16,0-29.26-14.2-29.26-31.71s13.1-31.72,29.26-31.72c10.53,0,19.76,6.05,24.92,15.12l19.06-8.48a50.9,50.9,0,0,0-44.49-25.91c-28.06,0-50.81,22.49-50.81,50.25s22.75,50.25,50.81,50.25C295.71,624.37,322.72,610.69,318.77,570.83Z" transform="translate(-13.93 -22.23)"/><path class="cls-1" d="M524.37,570.83H478.9v17.45h23.84c-2.07,13.92-14.41,18.29-24.57,18.29-16.15,0-29.25-14.2-29.25-31.71s13.1-31.72,29.25-31.72c10.53,0,19.77,6.05,24.92,15.12l19.06-8.48a50.88,50.88,0,0,0-44.48-25.91c-28.07,0-50.82,22.49-50.82,50.25s22.75,50.25,50.82,50.25C501.31,624.37,528.33,610.69,524.37,570.83Z" transform="translate(-13.93 -22.23)"/><path class="cls-1" d="M384.51,526H366.22l-39.79,96.71h22.24l8.16-18.62h37.56l8.16,18.62h22.24ZM363,586.31,375.61,553l12.6,33.36Z" transform="translate(-13.93 -22.23)"/><polygon class="cls-1" points="514.15 503.79 536.88 503.79 558.88 543.33 581.37 503.79 604.6 503.79 570.25 562.85 570.25 602.14 548.5 602.14 548.5 562.85 514.15 503.79"/><polygon class="cls-1" points="700.48 503.79 720 503.79 720 600.41 700.48 600.41 700.48 540.36 677.5 589.78 660.69 589.78 637.71 539.13 637.71 600.41 618.19 600.41 618.19 503.79 637.71 503.79 640.9 503.79 669.55 567.39 697.64 503.79 700.48 503.79"/></svg>