<svg width="24" height="24" viewBox="0 0 24 24" fill="none" xmlns="http://www.w3.org/2000/svg">
<path d="M14 17C14.5523 17 15 17.4477 15 18C15 18.5523 14.5523 19 14 19L6 19C5.44772 19 5 18.5523 5 18C5 17.4477 5.44772 17 6 17L14 17Z" fill="#6155F5"/>
<path d="M21 21C21.5523 21 22 21.4477 22 22C22 22.5523 21.5523 23 21 23L3 23C2.44772 23 2 22.5523 2 22C2 21.4477 2.44772 21 3 21L21 21Z" fill="#6155F5"/>
<path d="M20 15C20 13.4087 19.3674 11.883 18.2422 10.7578C17.1874 9.703 15.7807 9.08146 14.2979 9.00781L14 9H13C12.4477 9 12 8.55228 12 8C12 7.44772 12.4477 7 13 7L14 7L14.3965 7.00977C16.3739 7.10781 18.2507 7.9362 19.6572 9.34277C21.1575 10.8431 22 12.8783 22 15C22 17.1217 21.1575 19.1569 19.6572 20.6572C18.1569 22.1575 16.1217 23 14 23C13.4477 23 13 22.5523 13 22C13 21.4477 13.4477 21 14 21C15.5913 21 17.117 20.3674 18.2422 19.2422C19.3674 18.117 20 16.5913 20 15Z" fill="#6155F5"/>
<path d="M11 13C11.5523 13 12 13.4477 12 14C12 14.5523 11.5523 15 11 15H9C8.44772 15 8 14.5523 8 14C8 13.4477 8.44772 13 9 13H11Z" fill="#6155F5"/>
<path d="M12 7L8 7L8 10L8.00488 10.0986C8.02757 10.3276 8.12883 10.5429 8.29297 10.707C8.48051 10.8946 8.73478 11 9 11H11C11.2652 11 11.5195 10.8946 11.707 10.707C11.8946 10.5195 12 10.2652 12 10V7ZM14 10C14 10.7957 13.6837 11.5585 13.1211 12.1211C12.5585 12.6837 11.7957 13 11 13L9 13C8.20435 13 7.44152 12.6837 6.87891 12.1211C6.38671 11.6289 6.08291 10.9835 6.01465 10.2969L6 10L6 6L6.00488 5.89746C6.05621 5.39333 6.48232 5 7 5L13 5L13.1025 5.00488C13.6067 5.05621 14 5.48232 14 6V10Z" fill="#6155F5"/>
<path d="M11 6L11 3L9 3L9 6C9 6.55228 8.55228 7 8 7C7.44772 7 7 6.55228 7 6V3C7 2.46957 7.21087 1.96101 7.58594 1.58594C7.96101 1.21086 8.46957 1 9 1L11 1L11.1973 1.00977C11.6553 1.05515 12.0858 1.25765 12.4141 1.58594C12.7891 1.96101 13 2.46957 13 3V6C13 6.55228 12.5523 7 12 7C11.4477 7 11 6.55228 11 6Z" fill="#6155F5"/>
</svg>
