<svg width="24" height="24" viewBox="0 0 24 24" fill="none" xmlns="http://www.w3.org/2000/svg">
<path d="M19 5.99951C16.6805 5.99951 13.9706 4.66292 12.1104 3.03955C12.0796 3.01325 12.0405 2.99951 12 2.99951C11.9595 2.99951 11.9204 3.01423 11.8896 3.04053L11.8887 3.03955C10.0971 4.60153 7.48931 5.91502 5.21875 5.99561L5 5.99951L5 12.9995L5.00879 13.4116C5.09782 15.437 5.8465 16.9384 6.98633 18.1059C8.07404 19.2199 9.55305 20.064 11.2539 20.7231L11.9961 20.9946L12.0186 21.0014C14.0236 20.3017 15.7728 19.381 17.0137 18.1079C18.229 16.861 19 15.2353 19 12.9995L19 5.99951ZM21 12.9995C21 15.7636 20.021 17.8888 18.4463 19.5044C16.8988 21.092 14.8204 22.1441 12.6689 22.894L12.6611 22.8969C12.233 23.042 11.7688 23.0368 11.3438 22.8842C11.3379 22.8822 11.3321 22.8804 11.3262 22.8784C11.3246 22.8778 11.3228 22.878 11.3213 22.8774V22.8764C9.17204 22.1319 7.09956 21.0846 5.55566 19.5034C4.07782 17.9898 3.12517 16.0278 3.01172 13.5112L3 12.9995L3 5.99951C3.00012 5.46924 3.21097 4.96042 3.58594 4.58545C3.96099 4.21052 4.46967 3.99951 5 3.99951L5.32129 3.98779C6.95847 3.86727 9.05353 2.86209 10.582 1.52686L10.5908 1.52002L10.7422 1.40088C11.1082 1.14056 11.5477 0.999512 12 0.999512C12.4523 0.999512 12.8918 1.14056 13.2578 1.40088L13.4092 1.52002L13.418 1.52686L13.7324 1.7915C15.3383 3.08677 17.4277 3.99951 19 3.99951C19.5303 3.99951 20.039 4.21052 20.4141 4.58545C20.789 4.96042 20.9999 5.46924 21 5.99951L21 12.9995Z" fill="#6155F5"/>
<path d="M14.3692 9.22438C14.7619 8.90403 15.3409 8.92662 15.707 9.29274C16.0732 9.65885 16.0958 10.2379 15.7754 10.6307L15.707 10.7068L11.707 14.7068C11.3409 15.073 10.7619 15.0956 10.3692 14.7752L10.293 14.7068L8.29298 12.7068L8.22462 12.6307C7.90427 12.2379 7.92686 11.6589 8.29298 11.2928C8.65909 10.9267 9.2381 10.9041 9.63087 11.2244L9.70704 11.2928L11 12.5857L14.293 9.29274L14.3692 9.22438Z" fill="#6155F5"/>
</svg>
