<svg width="24" height="24" viewBox="0 0 24 24" fill="none" xmlns="http://www.w3.org/2000/svg">
<path d="M12.1227 1.00439C12.366 1.02426 12.6005 1.10372 12.8063 1.23486L12.9069 1.3042L13.0016 1.38232C13.1834 1.54516 13.3222 1.75014 13.4069 1.979L13.445 2.09521L13.4508 2.11474L15.0319 8.25048H15.0309C15.0756 8.42337 15.1664 8.58125 15.2926 8.70752C15.4189 8.83374 15.5768 8.92361 15.7497 8.96826L21.8844 10.5494L21.901 10.5542C22.1779 10.6306 22.4259 10.7844 22.6169 10.9966L22.696 11.0913L22.7663 11.1919C22.9199 11.4323 23.0026 11.7125 23.0026 11.9995C23.0026 12.3278 22.8948 12.6475 22.696 12.9087C22.522 13.1372 22.2863 13.3105 22.0182 13.4087L21.901 13.4458C21.8956 13.4473 21.8899 13.4483 21.8844 13.4497L15.7497 15.0308C15.5767 15.0754 15.419 15.1662 15.2926 15.2925C15.1665 15.4187 15.0756 15.5759 15.0309 15.7486L15.0319 15.7495L13.4499 21.8843L13.444 21.9038C13.3558 22.2191 13.1667 22.497 12.9059 22.6949C12.6451 22.8927 12.327 23.0005 11.9997 23.0005C11.6724 23.0005 11.3542 22.8926 11.0934 22.6949C10.8653 22.5218 10.6913 22.288 10.5924 22.021L10.5553 21.9038C10.5535 21.8973 10.5512 21.8909 10.5495 21.8843L8.96838 15.7495C8.92375 15.5766 8.83389 15.4188 8.70764 15.2925C8.61277 15.1977 8.50007 15.1229 8.37659 15.0728L8.25061 15.0308L2.11584 13.4488L2.09241 13.4429C1.77841 13.3538 1.50209 13.1642 1.3053 12.9038C1.13309 12.676 1.02953 12.4046 1.00647 12.1216L1.00159 11.9995L1.00647 11.8775C1.02961 11.5946 1.13319 11.323 1.3053 11.0953L1.38245 11.0015C1.57148 10.7896 1.81761 10.6352 2.09241 10.5572L2.11487 10.5503L8.25061 8.96728L8.37659 8.92529C8.49998 8.87522 8.61281 8.8013 8.70764 8.70654C8.83372 8.58054 8.92357 8.42299 8.96838 8.25048L10.5505 2.11474L10.5563 2.09521C10.6445 1.78001 10.8336 1.50202 11.0944 1.3042L11.194 1.23486C11.4343 1.08163 11.714 0.999512 12.0006 0.999512L12.1227 1.00439ZM10.9049 8.74951C10.7708 9.26817 10.5007 9.74289 10.1217 10.1216C9.79004 10.453 9.38546 10.7007 8.94202 10.8472L8.74963 10.9038L4.50354 11.9986L8.74963 13.0943L8.94202 13.1509C9.38576 13.2976 9.78993 13.5467 10.1217 13.8785C10.5006 14.2574 10.771 14.7307 10.9049 15.2495L10.9059 15.2505L11.9987 19.4956L13.0944 15.2505V15.2495L13.151 15.0572C13.2977 14.6137 13.547 14.2101 13.8786 13.8785C14.2577 13.4994 14.7315 13.2282 15.2506 13.0943L19.4977 11.9995L15.2506 10.9048C14.7316 10.7709 14.2576 10.5006 13.8786 10.1216C13.5468 9.78983 13.2977 9.38559 13.151 8.94189L13.0944 8.74951L11.9997 4.50244L10.9049 8.74951Z" fill="#6155F5"/>
<path d="M19 7V3C19 2.44772 19.4477 2 20 2C20.5523 2 21 2.44772 21 3V7C21 7.55228 20.5523 8 20 8C19.4477 8 19 7.55228 19 7Z" fill="#6155F5"/>
<path d="M22 4C22.5523 4 23 4.44772 23 5C23 5.55228 22.5523 6 22 6L18 6C17.4477 6 17 5.55228 17 5C17 4.44772 17.4477 4 18 4L22 4Z" fill="#6155F5"/>
<path d="M3 19L3 17C3 16.4477 3.44772 16 4 16C4.55228 16 5 16.4477 5 17L5 19C5 19.5523 4.55228 20 4 20C3.44772 20 3 19.5523 3 19Z" fill="#6155F5"/>
<path d="M5 17C5.55228 17 6 17.4477 6 18C6 18.5523 5.55228 19 5 19H3C2.44772 19 2 18.5523 2 18C2 17.4477 2.44772 17 3 17H5Z" fill="#6155F5"/>
</svg>
