<svg width="24" height="24" viewBox="0 0 24 24" fill="none" xmlns="http://www.w3.org/2000/svg">
<path d="M17.293 1.29322C17.6591 0.927107 18.2381 0.904513 18.6309 1.22486L18.707 1.29322L22.707 5.29322L22.7754 5.36939C23.0957 5.76216 23.0731 6.34116 22.707 6.70728C22.3409 7.0734 21.7619 7.09599 21.3691 6.77564L21.293 6.70728L17.293 2.70728L17.2246 2.63111C16.9043 2.23834 16.9268 1.65933 17.293 1.29322Z" fill="#FAFAFA"/>
<path d="M19.2929 3.29339C19.6834 2.90286 20.3165 2.90286 20.707 3.29339C21.0976 3.68391 21.0976 4.31692 20.707 4.70745L17.707 7.70745C17.3165 8.09797 16.6834 8.09797 16.293 7.70745C15.9024 7.31692 15.9024 6.68391 16.293 6.29339L19.2929 3.29339Z" fill="#FAFAFA"/>
<path d="M14.3687 4.22487C14.7615 3.90445 15.3405 3.92717 15.7066 4.29323C16.0726 4.65922 16.096 5.23835 15.776 5.63112L15.7066 5.70729L5.40688 16.0071C5.39453 16.0194 5.38177 16.0315 5.36879 16.0432C4.83203 16.5263 4.77554 17.362 5.40688 17.9934L6.00649 18.593L6.0436 18.6311L6.13735 18.7258C6.62944 19.1723 7.40078 19.185 7.99281 18.593L18.2926 8.29323C18.6831 7.90274 19.3161 7.9028 19.7066 8.29323C20.0972 8.68375 20.0972 9.31677 19.7066 9.70729L9.40688 20.0071C8.05033 21.3636 5.91243 21.4307 4.59242 20.0071L3.99281 19.4074C2.63618 18.0508 2.5689 15.912 3.99281 14.592L14.2926 4.29323L14.3687 4.22487Z" fill="#FAFAFA"/>
<path d="M8.29298 10.2932C8.6591 9.92711 9.2381 9.90452 9.63087 10.2248L9.70705 10.2932L13.707 14.2932L13.7754 14.3694C14.0957 14.7621 14.0731 15.3411 13.707 15.7072C13.3409 16.0734 12.7619 16.096 12.3691 15.7756L12.293 15.7072L8.29298 11.7072L8.22462 11.6311C7.90427 11.2383 7.92687 10.6593 8.29298 10.2932Z" fill="#FAFAFA"/>
<path d="M4.29289 18.2934C4.68341 17.9029 5.31643 17.9029 5.70695 18.2934C6.09748 18.6839 6.09748 19.317 5.70695 19.7075L2.70695 22.7075C2.31643 23.098 1.68341 23.098 1.29289 22.7075C0.902369 22.317 0.902369 21.6839 1.29289 21.2934L4.29289 18.2934Z" fill="#FAFAFA"/>
<path d="M13.293 3.29322C13.6591 2.9271 14.2381 2.90451 14.6309 3.22486L14.707 3.29322L20.707 9.29322L20.7754 9.36939C21.0957 9.76216 21.0731 10.3411 20.707 10.7072C20.3409 11.0734 19.7619 11.096 19.3691 10.7756L19.293 10.7072L13.293 4.70728L13.2246 4.63111C12.9043 4.23834 12.9268 3.65933 13.293 3.29322Z" fill="#FAFAFA"/>
</svg>
