<svg width="24" height="24" viewBox="0 0 24 24" fill="none" xmlns="http://www.w3.org/2000/svg">
<path d="M13.3512 1.00426C13.6036 0.979433 13.8585 1.01916 14.0914 1.11949L14.2057 1.17516L14.3151 1.23961C14.5277 1.37773 14.7015 1.56768 14.8209 1.79137L14.8766 1.90563L14.9215 2.02477C15.0013 2.26511 15.0194 2.52186 14.9733 2.77086L14.944 2.89488C14.9404 2.90782 14.9373 2.92116 14.9332 2.93395L13.0133 8.95348L12.9967 9.00035H19.9996C20.3771 8.99962 20.7473 9.10533 21.067 9.30602C21.3875 9.50722 21.6439 9.79572 21.8073 10.1371C21.9706 10.4784 22.0343 10.8589 21.9899 11.2347C21.951 11.5635 21.8312 11.8768 21.6422 12.1468L21.5563 12.2601L21.4977 12.3265L11.5973 22.5267L11.5963 22.5257C11.3776 22.7596 11.0909 22.9195 10.775 22.9779C10.4405 23.0398 10.0946 22.986 9.79452 22.8255C9.49452 22.6651 9.25787 22.4067 9.12362 22.0941C8.98953 21.7816 8.96605 21.4328 9.05624 21.1048L9.06698 21.0658L10.9869 15.0463L11.0035 15.0004L3.9996 15.0004C3.62248 15.0009 3.25265 14.8942 2.93319 14.6937C2.61288 14.4926 2.35629 14.2048 2.19296 13.8636C2.02959 13.5222 1.96593 13.1409 2.01034 12.765C2.0548 12.3893 2.20556 12.0334 2.44394 11.7396L2.50253 11.6732L12.403 1.47399C12.6217 1.23994 12.9093 1.08127 13.2252 1.02281L13.3512 1.00426ZM4.00253 13.0004L10.9996 13.0004C11.3222 12.9998 11.6402 13.0771 11.9264 13.2259C12.2133 13.3752 12.4603 13.5914 12.6451 13.8568C12.83 14.1223 12.9475 14.4294 12.9879 14.7504C13.0262 15.055 12.9905 15.363 12.8903 15.6527L12.8932 15.6537L11.6266 19.6244L19.9977 11.0004H12.9996C12.6775 11.0008 12.3597 10.9234 12.0739 10.7748C11.7869 10.6255 11.54 10.4084 11.3551 10.1429C11.1704 9.87756 11.0528 9.57115 11.0123 9.25035C10.9739 8.94533 11.0085 8.63614 11.109 8.34606H11.1071L12.3727 4.37438L4.00253 13.0004Z" fill="#FAFAFA"/>
</svg>
